<?xml version="1.0" encoding="utf-8"?>
<!-- Generator: Adobe Illustrator 23.0.5, SVG Export Plug-In . SVG Version: 6.00 Build 0)  -->
<svg version="1.1" id="Layer_1" xmlns="http://www.w3.org/2000/svg" xmlns:xlink="http://www.w3.org/1999/xlink" x="0px" y="0px"
	 viewBox="0 0 66.8 66.8" style="enable-background:new 0 0 66.8 66.8;" xml:space="preserve">
<style type="text/css">
	.st0{opacity:0.15;fill:#446BEB;}
	.st1{fill:#446BEB;}
	.st2{fill:#FFFFFF;}
</style>
<g>
	<path class="st0" d="M42.6,66.2H24.2c-13,0-23.6-10.6-23.6-23.6V24.2c0-13,10.6-23.6,23.6-23.6h18.5c13,0,23.6,10.6,23.6,23.6v18.5
		C66.2,55.6,55.6,66.2,42.6,66.2z"/>
	<path class="st1" d="M41.3,61.6H25.5c-11.1,0-20.3-9.1-20.3-20.3V25.5c0-11.1,9.1-20.3,20.3-20.3h15.9c11.1,0,20.3,9.1,20.3,20.3
		v15.9C61.6,52.5,52.5,61.6,41.3,61.6z"/>
</g>
<g>
	<g>
		<path class="st2" d="M47,29.9c-0.1-0.1-0.2-0.2-0.3-0.2c-0.1,0-0.2-0.1-0.3-0.1h-3.1c0.3-0.5,0.6-1,0.8-1.6
			c0.2-0.6,0.4-1.3,0.5-1.9l-1.3-0.5c0.1-0.6,0-1.2-0.1-1.7l1.3-0.6c-0.1-0.6-0.3-1.3-0.6-1.9c-0.3-0.6-0.6-1.2-1-1.7l-1.3,0.6
			c-0.4-0.4-0.8-0.9-1.3-1.2l0.5-1.3c-0.5-0.4-1.1-0.7-1.7-0.9c-0.6-0.2-1.3-0.4-1.9-0.5l-0.5,1.3c-0.6-0.1-1.2-0.1-1.7,0l-0.6-1.3
			c-1.3,0.3-2.5,0.8-3.6,1.6l0.6,1.3c-0.4,0.4-0.9,0.8-1.2,1.3l-1.3-0.5c-0.4,0.5-0.7,1.1-0.9,1.7c-0.2,0.6-0.4,1.3-0.5,1.9l1.3,0.5
			c-0.1,0.6,0,1.2,0,1.7l-1.3,0.6c0.1,0.6,0.3,1.3,0.6,1.9c0.2,0.4,0.4,0.8,0.7,1.2h-3.9l-0.1-1.1c-0.4-3-3-5.3-6-5.3
			c-0.5,0-0.8,0.4-0.8,0.8s0.4,0.8,0.8,0.8c2.2,0,4.1,1.6,4.4,3.8L24.7,44c0.1,1.3,0.8,2.4,1.9,3.1l0.3,0.2l-0.2,0.3
			c-0.6,0.9-0.7,2.1-0.1,3.2c0.5,1,1.6,1.6,2.8,1.6c1,0,1.9-0.5,2.5-1.3c0.6-0.8,0.7-1.9,0.4-2.8l-0.2-0.5h6.1L38,48.4
			c-0.3,0.9-0.2,2,0.4,2.8c0.6,0.8,1.5,1.3,2.5,1.3h0c2.1-0.1,3.1-1.7,3.1-3.1c0-1.4-1-3-3.1-3.1H29c-1.4,0-2.5-1-2.7-2.4l-0.1-0.7
			H41c2.1,0,3.8-1.5,4.3-3.5l0.6-3c0-0.2,0-0.5-0.2-0.7c-0.2-0.2-0.4-0.3-0.6-0.3h-5.6l0.2-2.3l0.1-0.8l0.1-1.5h5.1l0.4,0.1
			l-0.1,0.4c0,0.2,0,0.4,0.1,0.6c0.1,0.2,0.3,0.3,0.7,0.4c0.4,0,0.7-0.3,0.8-0.7l0.3-1.5C47.2,30.3,47.2,30.1,47,29.9z M40.9,47.9
			c0.8,0,1.5,0.7,1.5,1.5c0,0.9-0.8,1.5-1.5,1.5c-0.7,0-1.4-0.5-1.5-1.5C39.4,48.6,40.1,47.9,40.9,47.9z M29.3,47.9
			c0.8,0,1.5,0.7,1.5,1.5c0,0.9-0.8,1.5-1.5,1.5c-0.7,0-1.4-0.5-1.5-1.5C27.8,48.6,28.5,47.9,29.3,47.9z M30.4,29.5
			C30.4,29.5,30.4,29.5,30.4,29.5l-0.1,0.1L30.4,29.5z M25,31.2h5.3l0.4,4.5h-5.2L25,31.2z M26.1,41.5l-0.5-4.2h5.1l0.3,4.2H26.1z
			 M37.3,41.5h-4.6l-0.3-4.2h5.3L37.3,41.5z M38,33.3l0,0.2l-0.2,2.3h-5.5L32,32.6l-0.1-1.4h6.2L38,33.3z M44.1,37.4l-0.4,2
			c-0.3,1.2-1.4,2.1-2.7,2.1H39l0.3-4.2H44.1z M39.6,26.3c-0.8,2-3,3-5,2.2c-2-0.8-3-3-2.3-5c0.8-2,3-3,5.1-2.3
			C39.4,22,40.4,24.3,39.6,26.3z M41.5,29.6c0.1-0.1,0.2-0.2,0.3-0.3l0.9,0.3H41.5z"/>
	</g>
</g>
</svg>
