<?xml version="1.0" encoding="utf-8"?>
<!-- Generator: Adobe Illustrator 23.0.5, SVG Export Plug-In . SVG Version: 6.00 Build 0)  -->
<svg version="1.1" id="Layer_1" xmlns="http://www.w3.org/2000/svg" xmlns:xlink="http://www.w3.org/1999/xlink" x="0px" y="0px"
	 viewBox="0 0 66.8 66.8" style="enable-background:new 0 0 66.8 66.8;" xml:space="preserve">
<style type="text/css">
	.st0{opacity:0.15;fill:#0A021D;}
	.st1{fill:#0A021D;}
	.st2{fill:#FFFFFF;}
	.st3{fill:#446BEB;}
</style>
<g>
	<path class="st0" d="M42.6,66.2H24.2c-13,0-23.6-10.6-23.6-23.6V24.2c0-13,10.6-23.6,23.6-23.6h18.5c13,0,23.6,10.6,23.6,23.6v18.5
		C66.2,55.6,55.6,66.2,42.6,66.2z"/>
	<path class="st1" d="M41.3,61.6H25.5c-11.1,0-20.3-9.1-20.3-20.3V25.5c0-11.1,9.1-20.3,20.3-20.3h15.9c11.1,0,20.3,9.1,20.3,20.3
		v15.9C61.6,52.5,52.5,61.6,41.3,61.6z"/>
</g>
<g>
	<g>
		<path class="st2" d="M25.7,37.7c1.7,1.9,4.6,3,7.7,3c3.1,0,5.9-1.1,7.7-2.9c0.5-0.5,0.5-1.4-0.1-1.9c-0.5-0.5-1.4-0.5-1.9,0.1
			c-1,1.1-3.2,2.1-5.7,2.1c-2.6,0-4.7-0.9-5.8-2.1c-0.5-0.5-1.3-0.6-1.9-0.1C25.2,36.3,25.2,37.1,25.7,37.7z"/>
		<path class="st2" d="M24.2,28.8c0,1.5-1.2,2.6-2.6,2.6c-1.5,0-2.6-1.2-2.6-2.6c0-1.5,1.2-2.6,2.6-2.6C23,26.2,24.2,27.4,24.2,28.8
			z"/>
		<path class="st2" d="M47.9,28.8c0,1.5-1.2,2.6-2.6,2.6c-1.5,0-2.6-1.2-2.6-2.6c0-1.5,1.2-2.6,2.6-2.6
			C46.7,26.2,47.9,27.4,47.9,28.8z"/>
	</g>
	<path class="st3" d="M51.8,36.7c0,1.5-1.2,2.6-2.6,2.6c-1.5,0-2.6-1.2-2.6-2.6c0-1.5,1.2-2.6,2.6-2.6
		C50.6,34.1,51.8,35.2,51.8,36.7z"/>
	<path class="st3" d="M20.3,36.7c0,1.5-1.2,2.6-2.6,2.6c-1.5,0-2.6-1.2-2.6-2.6c0-1.5,1.2-2.6,2.6-2.6
		C19.1,34.1,20.3,35.2,20.3,36.7z"/>
</g>
</svg>
