<?xml version="1.0" encoding="utf-8"?>
<!-- Generator: Adobe Illustrator 23.0.5, SVG Export Plug-In . SVG Version: 6.00 Build 0)  -->
<svg version="1.1" id="Layer_1" xmlns="http://www.w3.org/2000/svg" xmlns:xlink="http://www.w3.org/1999/xlink" x="0px" y="0px"
	 viewBox="0 0 66.8 66.8" style="enable-background:new 0 0 66.8 66.8;" xml:space="preserve">
<style type="text/css">
	.st0{opacity:0.15;fill:#483A9C;}
	.st1{fill:#483A9C;}
	.st2{fill:#FFFFFF;}
</style>
<g>
	<path class="st0" d="M42.6,66.2H24.2c-13,0-23.6-10.6-23.6-23.6V24.2c0-13,10.6-23.6,23.6-23.6h18.5c13,0,23.6,10.6,23.6,23.6v18.5
		C66.2,55.6,55.6,66.2,42.6,66.2z"/>
	<path class="st1" d="M41.3,61.6H25.5c-11.1,0-20.3-9.1-20.3-20.3V25.5c0-11.1,9.1-20.3,20.3-20.3h15.9c11.1,0,20.3,9.1,20.3,20.3
		v15.9C61.6,52.5,52.5,61.6,41.3,61.6z"/>
</g>
<g>
	<path class="st2" d="M51.4,27.7h-4.3l3-3c0.4-0.4,0.4-1,0-1.4l-6.7-6.7c-0.4-0.4-1-0.4-1.4,0l-3,3v-4.3c0-0.5-0.4-0.9-0.9-0.9h-9.5
		c-0.5,0-0.9,0.4-0.9,0.9v4.3l-3-3c-0.2-0.2-0.4-0.3-0.7-0.3c-0.2,0-0.5,0.1-0.7,0.3l-6.7,6.7c-0.4,0.4-0.4,1,0,1.4l3,3h-4.3
		c-0.5,0-0.9,0.4-0.9,0.9v9.5c0,0.5,0.4,0.9,0.9,0.9h4.3l-3,3c-0.4,0.4-0.4,1,0,1.4l6.7,6.7c0.4,0.4,1,0.4,1.4,0l3-3v4.3
		c0,0.5,0.4,0.9,0.9,0.9h9.5c0.5,0,0.9-0.4,0.9-0.9v-4.3l3,3c0.2,0.2,0.4,0.3,0.7,0.3c0.2,0,0.5-0.1,0.7-0.3l6.7-6.7
		c0.4-0.4,0.4-1,0-1.4l-3-3h4.3c0.5,0,0.9-0.4,0.9-0.9v-9.5C52.4,28.1,51.9,27.7,51.4,27.7z M50.5,37.2h-4.7c-0.4,0-0.7,0.2-0.9,0.6
		c-0.1,0.2-0.2,0.4-0.3,0.6c-0.2,0.4-0.1,0.8,0.2,1.1l3.3,3.3l-5.4,5.4l-3.3-3.3c-0.3-0.3-0.7-0.4-1.1-0.2c-0.2,0.1-0.4,0.2-0.6,0.3
		c-0.4,0.1-0.6,0.5-0.6,0.9v4.7h-7.6v-4.7c0-0.4-0.2-0.7-0.6-0.9c-0.2-0.1-0.4-0.2-0.6-0.3c-0.4-0.2-0.8-0.1-1.1,0.2L24,48.2
		l-5.4-5.4l3.3-3.3c0.3-0.3,0.4-0.7,0.2-1.1c-0.1-0.2-0.2-0.4-0.3-0.6c-0.1-0.4-0.5-0.6-0.9-0.6h-4.7v-7.6H21c0.4,0,0.7-0.2,0.9-0.6
		c0.1-0.2,0.2-0.4,0.3-0.6c0.2-0.4,0.1-0.8-0.2-1.1L18.6,24l5.4-5.4l3.3,3.3c0.3,0.3,0.7,0.4,1.1,0.2c0.2-0.1,0.4-0.2,0.6-0.3
		c0.4-0.1,0.6-0.5,0.6-0.9v-4.7h7.6V21c0,0.4,0.2,0.7,0.6,0.9c0.2,0.1,0.4,0.2,0.6,0.3c0.4,0.2,0.8,0.1,1.1-0.2l3.3-3.3l5.4,5.4
		l-3.3,3.3c-0.3,0.3-0.4,0.7-0.2,1.1c0.1,0.2,0.2,0.4,0.3,0.6c0.1,0.4,0.5,0.6,0.9,0.6h4.7V37.2z"/>
	<path class="st2" d="M33.4,23C27.6,23,23,27.6,23,33.4s4.7,10.4,10.4,10.4s10.4-4.7,10.4-10.4S39.2,23,33.4,23z M33.4,41.9
		c-4.7,0-8.5-3.8-8.5-8.5s3.8-8.5,8.5-8.5s8.5,3.8,8.5,8.5C41.9,38.1,38.1,41.9,33.4,41.9z"/>
</g>
<g>
	<path class="st2" d="M37.3,29.7h-7.8c-0.6,0-1.2,0.5-1.2,1.2v5.8c0,0.2,0.1,0.3,0.2,0.4c0,0,0.1,0,0.1,0c0.1,0,0.2,0,0.3-0.1
		l1.8-1.8h6.4c0.6,0,1.2-0.5,1.2-1.2v-3.1C38.4,30.2,37.9,29.7,37.3,29.7z M37.7,34c0,0.2-0.2,0.4-0.4,0.4h-6.6
		c-0.1,0-0.2,0-0.3,0.1l-1.3,1.3v-4.9c0-0.2,0.2-0.4,0.4-0.4h7.8c0.2,0,0.4,0.2,0.4,0.4V34z"/>
	<path class="st2" d="M36.5,31.3h-0.8c-0.2,0-0.4,0.2-0.4,0.4s0.2,0.4,0.4,0.4h0.8c0.2,0,0.4-0.2,0.4-0.4S36.7,31.3,36.5,31.3z"/>
	<path class="st2" d="M34.2,31.3h-3.9c-0.2,0-0.4,0.2-0.4,0.4s0.2,0.4,0.4,0.4h3.9c0.2,0,0.4-0.2,0.4-0.4S34.4,31.3,34.2,31.3z"/>
	<path class="st2" d="M36.5,32.8h-0.8c-0.2,0-0.4,0.2-0.4,0.4c0,0.2,0.2,0.4,0.4,0.4h0.8c0.2,0,0.4-0.2,0.4-0.4
		C36.9,33,36.7,32.8,36.5,32.8z"/>
	<path class="st2" d="M34.2,32.8h-3.9c-0.2,0-0.4,0.2-0.4,0.4c0,0.2,0.2,0.4,0.4,0.4h3.9c0.2,0,0.4-0.2,0.4-0.4
		C34.6,33,34.4,32.8,34.2,32.8z"/>
</g>
</svg>
