<?xml version="1.0" encoding="utf-8"?>
<!-- Generator: Adobe Illustrator 23.0.5, SVG Export Plug-In . SVG Version: 6.00 Build 0)  -->
<svg version="1.1" id="Layer_1" xmlns="http://www.w3.org/2000/svg" xmlns:xlink="http://www.w3.org/1999/xlink" x="0px" y="0px"
	 viewBox="0 0 194.9 227.6" style="enable-background:new 0 0 194.9 227.6;" xml:space="preserve">
<style type="text/css">
	.st0{fill:url(#SVGID_1_);}
	.st1{fill:#483A9C;}
	.st2{fill:#4C40BD;}
	.st3{fill:url(#SVGID_2_);}
	.st4{fill:#01C3FE;}
	.st5{fill:url(#SVGID_3_);}
	.st6{fill:#446BEB;}
</style>
<g>
	<linearGradient id="SVGID_1_" gradientUnits="userSpaceOnUse" x1="18.7883" y1="98.2661" x2="21.206" y2="132.8402">
		<stop  offset="0" style="stop-color:#483A9C"/>
		<stop  offset="0.4832" style="stop-color:#446BEB"/>
		<stop  offset="1" style="stop-color:#1FD7FF"/>
	</linearGradient>
	<circle class="st0" cx="20" cy="115.6" r="17.3"/>
	<g>
		<path class="st1" d="M120.1,3.4c1.6,0,3.3,0.1,5.2,0.2l-0.2,3c-17.5-1.4-26.2,11.2-26.7,11.9C91.4,29,89.3,39.7,87,50.9
			c-2.1,10.6-4.3,21.6-10.9,32.3c-12.7,19-20.8,18.5-21.6,18.3l0.4-3c0.1,0,7.2,0.4,18.7-17c6.3-10.2,8.4-20.9,10.5-31.3
			c2.2-11.1,4.5-22.5,11.8-33.5l0.1-0.1C96.4,16.1,105.2,3.4,120.1,3.4z"/>
		<polygon class="st1" points="124.1,0 124.1,10.8 132.2,5 		"/>
		<circle class="st2" cx="51.1" cy="100.6" r="4.6"/>
		<circle class="st1" cx="143.8" cy="5.6" r="4.6"/>
	</g>
	<g>
		<linearGradient id="SVGID_2_" gradientUnits="userSpaceOnUse" x1="57.5138" y1="100.6099" x2="175.7727" y2="100.6099">
			<stop  offset="0" style="stop-color:#483A9C"/>
			<stop  offset="0.4832" style="stop-color:#446BEB"/>
			<stop  offset="1" style="stop-color:#1FD7FF"/>
		</linearGradient>
		<path class="st3" d="M172.1,88.2c1.2,1.1,2.4,2.3,3.7,3.6l-2.2,2.1c-12-12.8-26.9-9.3-27.8-9.2c-12.2,3.2-20.9,9.6-30.1,16.4
			c-8.7,6.4-17.7,13.1-29.8,16.6c-22.1,5.6-27.8-0.3-28.4-0.9l2.3-2c0,0.1,5.1,5.1,25.3,0c11.5-3.3,20.3-9.8,28.8-16.1
			c9.1-6.7,18.4-13.6,31.2-16.9l0.1,0C146,81.6,161,78.1,172.1,88.2z"/>
		<polygon class="st4" points="177.3,88.3 170.1,96.3 180,97.4 		"/>
		<circle class="st2" cx="55.7" cy="113.9" r="4.6"/>
		<circle class="st4" cx="188.2" cy="105.7" r="4.6"/>
	</g>
	<g>
		<linearGradient id="SVGID_3_" gradientUnits="userSpaceOnUse" x1="54.4268" y1="175.0686" x2="125.316" y2="175.0686">
			<stop  offset="0" style="stop-color:#483A9C"/>
			<stop  offset="0.4832" style="stop-color:#446BEB"/>
			<stop  offset="1" style="stop-color:#446BEB"/>
		</linearGradient>
		<path class="st5" d="M120.1,224.1c1.6,0,3.3-0.1,5.2-0.2l-0.2-3c-17.5,1.4-26.2-11.2-26.7-11.9c-6.9-10.5-9.1-21.2-11.3-32.4
			c-2.1-10.6-4.3-21.6-10.9-32.3c-12.7-19-20.8-18.5-21.6-18.3l0.4,3c0.1,0,7.2-0.4,18.7,17c6.3,10.2,8.4,20.9,10.5,31.3
			c2.2,11.1,4.5,22.5,11.8,33.5l0.1,0.1C96.4,211.5,105.2,224.1,120.1,224.1z"/>
		<polygon class="st6" points="124.1,227.6 124.1,216.8 132.2,222.6 		"/>
		<circle class="st2" cx="51.1" cy="127" r="4.6"/>
		<circle class="st6" cx="143.8" cy="222" r="4.6"/>
	</g>
</g>
</svg>
