<?xml version="1.0" encoding="utf-8"?>
<!-- Generator: Adobe Illustrator 23.0.5, SVG Export Plug-In . SVG Version: 6.00 Build 0)  -->
<svg version="1.1" id="Layer_1" xmlns="http://www.w3.org/2000/svg" xmlns:xlink="http://www.w3.org/1999/xlink" x="0px" y="0px"
	 viewBox="0 0 65 79" style="enable-background:new 0 0 65 79;" xml:space="preserve">
<style type="text/css">
	.st0{fill:#E0ECFC;}
	.st1{fill:none;stroke:#446BEB;stroke-width:3;stroke-linecap:round;stroke-linejoin:round;}
	.st2{fill:#FFFFFF;}
	.st3{fill:#ECFBFF;stroke:#446BEB;stroke-width:3;stroke-linecap:round;stroke-linejoin:round;}
</style>
<title>Support_Female</title>
<desc>Created with Sketch.</desc>
<g id="Page-1">
	<g id="Gist-Website-Homepage" transform="translate(-1083.000000, -1364.000000)">
		<g id="Group-8" transform="translate(977.000000, 1304.000000)">
			<g id="Support_Female" transform="translate(108.000000, 62.000000)">
				<path id="Shape" class="st0" d="M25.8,73.6c-6.6,1.9-5.4,0.5-5.4,0.5s2.9-5,0.1-8.1c-2-2.1-6.3-2.8-11-3.5
					c-10.4-4.3-8-17,4.5-21l2.3-0.8l0.1-0.1c1.1,1.8,2.4,3.9,3.7,5.7l-1.3-1.1L18.7,46c-1.3,1.6-4.9,4.5,0.9,8.9
					c5.9,4.4,6.9,4.5,6.9,4.5v-0.2l2.5,3.9C29,63.3,32.4,71.7,25.8,73.6z"/>
				<path class="st0" d="M22.9,14.9c-0.8,6.9-5.4,8.9-10.7,12.7c-0.1-2.9,0.2-5.7,1.1-8.5c1.2-3.6,3.2-6.8,6-9.3
					c2.7-2.4,5.9-4.1,9.4-4.9c1.6-0.4,3.3-0.6,4.9-0.6c8.2,0,15.4,4.6,19,11.7c1.2,2.3,1.8,4.3,2.1,6.2c-11.3,5.6-26.7-2.2-31.8-9.8
					C23,13.4,23,14.2,22.9,14.9"/>
				<g id="Group">
					<path class="st1" d="M18.9,6.3l4.1,6.1c5.2,7.7,20.9,15.7,32.3,9.6l0.7-0.4"/>
					<path class="st1" d="M10.9,28.5l1-0.5c4.5-3.4,8.6-5.3,10.4-9.9"/>
					<path class="st1" d="M0.7,50.2C-0.3,54,1.2,58,5.4,60.6c3.6,2.3,7.8,2,11.7,3.2c1.7,0.5,3.4,1.3,4.1,3c1,2.5-0.2,5.6-1.2,7.9
						c17.2-0.9,8.7-14.8,4.1-17.9c-4.7-3.2-11.7-5.8-4.4-11.3"/>
					<path class="st1" d="M14.7,38.7l-2.6,0.8c-2.6,0.8-4.8,2-6.6,3.4"/>
					<path class="st1" d="M45.6,47.9c-3.4,4-9.3,8.8-15.2,6.3c-2.2-0.9-4-2.5-6-3.9c-5.3-3.7-6.3-8.3-8.4-11
						c-2.2-2.8-5.3-1.8-6.6-5.6c-0.8-2.1,0.1-3.9,0.9-4.9c0.5-0.6,0.3-0.5,0.2-1.2c-0.5-3.9-0.3-7.9,0.9-11.7
						c1.2-3.8,3.5-7.1,6.4-9.8c0.9-0.8,1.8-1.5,2.8-2.1"/>
					<path class="st1" d="M28.3,0.9c1.6-0.4,3.2-0.5,4.8-0.5c8.8,0,16.5,4.9,20.5,12.3c2.6,4.9,2.7,8.6,2.7,12.6
						c0,1.4,0.9,2.7,1,4.1c0.3,3.2-1.7,6-4.8,6.7c-0.4,2.2-1.2,4.2-2.3,6.1"/>
					<path class="st1" d="M24.3,2.1c0.1,0,0.1-0.1,0.2-0.1"/>
				</g>
				<path class="st2" d="M57,38.3h-3V22.9h3c2.3,0,4.2,1.9,4.2,4.2v7.1C61.2,36.4,59.3,38.3,57,38.3z"/>
				<path class="st0" d="M56.4,38.3H54v-13h2.4c1.9,0,3.5,1.6,3.5,3.5v6C59.9,36.7,58.4,38.3,56.4,38.3z"/>
				<path class="st1" d="M57,38.3h-3V22.9h3c2.3,0,4.2,1.9,4.2,4.2v7.1C61.2,36.4,59.3,38.3,57,38.3z"/>
				<path class="st1" d="M33.8,44.8H52c2.4,0,4.3-1.9,4.3-4.3v-2.2"/>
				<path class="st3" d="M36.1,46.6h-3.8c-0.7,0-1.3-0.6-1.3-1.3v-0.8c0-0.7,0.6-1.3,1.3-1.3h3.8c0.7,0,1.3,0.6,1.3,1.3v0.8
					C37.4,46,36.8,46.6,36.1,46.6z"/>
			</g>
		</g>
	</g>
</g>
</svg>
