<?xml version="1.0" encoding="utf-8"?>
<!-- Generator: Adobe Illustrator 23.0.5, SVG Export Plug-In . SVG Version: 6.00 Build 0)  -->
<svg version="1.1" id="svg2" xmlns="http://www.w3.org/2000/svg" xmlns:xlink="http://www.w3.org/1999/xlink" x="0px" y="0px"
	 viewBox="0 0 600 600" style="enable-background:new 0 0 600 600;" xml:space="preserve">
<style type="text/css">
	.st0{fill:#00749A;}
</style>
<g>
	<g>
		<g>
			<g>
				<g>
					<g>
						<path class="st0" d="M51.2,300c0,98.5,57.2,183.6,140.2,223.9L72.8,198.7C59,229.7,51.2,263.9,51.2,300z"/>
						<path class="st0" d="M468,287.4c0-30.7-11-52-20.5-68.6C434.8,198.3,423,181,423,160.5c0-22.9,17.3-44.2,41.8-44.2
							c1.1,0,2.1,0.1,3.2,0.2C423.7,76,364.8,51.2,300,51.2c-86.9,0-163.4,44.6-207.9,112.1c5.8,0.2,11.3,0.3,16,0.3
							c26,0,66.3-3.2,66.3-3.2c13.4-0.8,15,18.9,1.6,20.5c0,0-13.5,1.6-28.5,2.4l90.6,269.5l54.4-163.3l-38.8-106.2
							c-13.4-0.8-26.1-2.4-26.1-2.4c-13.4-0.8-11.8-21.3,1.6-20.5c0,0,41.1,3.2,65.5,3.2c26,0,66.3-3.2,66.3-3.2
							c13.4-0.8,15,18.9,1.6,20.5c0,0-13.5,1.6-28.5,2.4l89.9,267.4l24.8-82.9C459.8,333.5,468,308.7,468,287.4z"/>
						<path class="st0" d="M304.4,321.8l-74.6,216.9c22.3,6.6,45.9,10.1,70.3,10.1c29,0,56.8-5,82.6-14.1c-0.7-1.1-1.3-2.2-1.8-3.4
							L304.4,321.8z"/>
						<path class="st0" d="M518.3,180.6c1.1,7.9,1.7,16.4,1.7,25.6c0,25.2-4.7,53.6-18.9,89.1l-76,219.7
							c74-43.1,123.7-123.3,123.7-215C548.8,256.7,537.7,216.1,518.3,180.6z"/>
						<path class="st0" d="M300,10C140.1,10,10,140.1,10,300c0,159.9,130.1,290,290,290c159.9,0,290-130.1,290-290
							C590,140.1,459.9,10,300,10z M300,576.7C147.4,576.7,23.3,452.6,23.3,300C23.3,147.4,147.4,23.3,300,23.3
							c152.6,0,276.7,124.1,276.7,276.7C576.7,452.6,452.6,576.7,300,576.7z"/>
					</g>
				</g>
			</g>
		</g>
	</g>
</g>
</svg>
