<?xml version="1.0" encoding="utf-8"?>
<!-- Generator: Adobe Illustrator 23.0.5, SVG Export Plug-In . SVG Version: 6.00 Build 0)  -->
<svg version="1.1" id="Layer_1" xmlns="http://www.w3.org/2000/svg" xmlns:xlink="http://www.w3.org/1999/xlink" x="0px" y="0px"
	 viewBox="0 0 64 73" style="enable-background:new 0 0 64 73;" xml:space="preserve">
<style type="text/css">
	.st0{fill:#FFFFFF;}
	.st1{fill:#E0ECFC;}
	.st2{fill:#FAFDFF;}
	.st3{fill:none;stroke:#446BEB;stroke-width:3;stroke-linecap:round;stroke-linejoin:round;}
</style>
<title>Chat</title>
<desc>Created with Sketch.</desc>
<g id="Page-1">
	<g id="Gist-Website-Homepage" transform="translate(-609.000000, -1368.000000)">
		<g id="Chat" transform="translate(611.000000, 1370.000000)">
			<path id="Shape" class="st0" d="M59.8,38c0,0.1,0,0.3,0,0.5c0,6.9-0.3,16.4-0.3,30.5l0,0l-14.1-8.6l-0.9-0.6
				c-2.1-1.3-4.7-1.7-7.2-1c-2.4,0.6-4.9,0.9-7.4,0.9c-2.2,0-4.3-0.2-6.4-0.7C10.2,56.2,0.2,44.3,0.1,30.2
				c0-16.4,13.2-29.8,29.7-29.8c11.8,0,22.7,7.2,27.4,18.1C59.5,23.7,59.9,28.5,59.8,38z"/>
			<path class="st1" d="M59.8,38c0,0.1,0,0.3,0,0.5v0.9c0,6.6-0.3,15.6-0.3,29.6l-13.9-8.5c-0.1,0-0.1-0.1-0.2-0.1l-0.9-0.6
				c-2.1-1.3-4.7-1.7-7.2-1c-2.4,0.6-4.9,0.9-7.4,0.9c-2.2,0-4.3-0.2-6.4-0.7c-7.4-2.5-13.4-7.9-16.5-15c-1.5-3.4-2.3-7.1-2.4-11
				C4.5,17.9,16.8,5.5,32,5.5c10.9,0,21,6.7,25.3,16.8C59.3,26.7,59.8,30.7,59.8,38z"/>
			<path class="st2" d="M59.8,38c0,0.1,0,0.3,0,0.5v0.9c-1.8,6.9-3,13.9-3,20.9c0,0-11.2-6.9-16.9-10.3c-6.8-4.1-10.4,2-23.5-0.9
				C13,48.1,9.8,46.3,6.9,44c-1.5-3.4-2.3-7.1-2.4-11C4.5,17.9,16.8,5.5,32,5.5c10.9,0,21,6.7,25.3,16.8
				C59.3,26.7,59.8,30.7,59.8,38z"/>
			<path class="st3" d="M59.6,61.9c0,2.2,0,4.6,0,7.1l0,0l-14.1-8.6l-0.9-0.6c-2.1-1.3-4.7-1.7-7.2-1c-2.4,0.6-4.9,0.9-7.4,0.9
				c-2.2,0-4.3-0.2-6.4-0.7C10.3,56.2,0.2,44.3,0.2,30.2c0-5.9,1.7-11.3,4.5-15.9"/>
			<path class="st3" d="M19.8,2.1c3.2-1.1,6.6-1.7,10.1-1.7c11.8,0,22.7,7.2,27.4,18.1c2.2,5.2,2.6,10,2.6,19.5c0,0.1,0,0.3,0,0.5
				c0,4.2-0.1,9.3-0.2,15.7"/>
			<path class="st3" d="M13.7,5.2c0.2-0.1,0.5-0.3,0.7-0.5"/>
			<circle id="Oval" class="st0" cx="15.5" cy="30.6" r="4.4"/>
			<circle class="st0" cx="29.9" cy="30.6" r="4.4"/>
			<circle class="st0" cx="44.3" cy="30.6" r="4.4"/>
			<path class="st3" d="M15.5,35c-2.4,0-4.4-2-4.4-4.4c0-0.6,0.1-1.1,0.3-1.6"/>
			<path class="st3" d="M14,26.5c0.5-0.1,0.9-0.2,1.5-0.2c2.4,0,4.4,2,4.4,4.4c0,1.2-0.5,2.2-1.2,3"/>
			<path class="st3" d="M34.3,30.4c0,0.1,0,0.1,0,0.2c0,2.4-2,4.4-4.4,4.4s-4.4-2-4.4-4.4s2-4.4,4.4-4.4c0.4,0,0.8,0,1.2,0.1"/>
			<path class="st3" d="M41.2,27.6c0.8-0.9,1.9-1.4,3.2-1.4c2.4,0,4.4,2,4.4,4.4s-2,4.4-4.4,4.4c-2.4,0-4.4-2-4.4-4.4
				C39.9,29.4,40.4,28.4,41.2,27.6"/>
		</g>
	</g>
</g>
</svg>
